# xmcd
#
# Track frame offsets:
#	150
#	37500
#	74886
#
# Disc length: 1504 seconds
# Revision: 2
# Processed by: cddbd v1.5.2PL0 Copyright (c) Steve Scherf et al.
# Submitted via: dBpowerAMP V12.0
#
DISCID=2105de03
DTITLE=Lester Levenson - Private Lessons with Lester CD 05
DYEAR=1986
DGENRE=Home Study
TTITLE0=No Limitations
TTITLE1=Confronting Your Limitations
TTITLE2=Body Identity
EXTD=
EXTT0=
EXTT1=
EXTT2=
PLAYORDER=
